<svg width="251" height="59" viewBox="0 0 251 59" fill="none" xmlns="http://www.w3.org/2000/svg">
<path d="M47.8 1L45.1 7.6C40 4.7 34.8 3.2 29.7 3.2C26.1 3.2 23.4 3.8 21.7 4.9C20 6.1 19.1 7.6 19.1 9.5C19.1 11.4 20.1 12.8 22.1 13.7C24.1 14.6 27.1 15.5 31.2 16.4C35.4 17.4 38.9 18.4 41.6 19.4C44.3 20.4 46.6 22 48.5 24.2C50.4 26.4 51.4 29.3 51.4 33C51.4 35.5 50.8 37.8 49.7 40C54 35 56.6 28.6 56.6 21.5C56.6 13.4 53.2 6.1 47.8 1Z" fill="white"/>
<path d="M18.1 38.4C21.4 39.5 24.7 40 27.9 40C31.5 40 34.2 39.5 36 38.4C37.7 37.3 38.6 35.9 38.6 34.1C38.6 32.8 38.1 31.7 37.1 30.8C36.1 29.9 34.7 29.2 33.1 28.7C31.5 28.2 29.3 27.6 26.6 27C22.4 26 18.9 25 16.2 24C13.5 23 11.2 21.4 9.3 19.2C7.4 17 6.4 14 6.4 10.3C6.4 7.1 7.3 4.2 9 1.5C9.3 1 9.7 0.5 10.1 0C3.9 5.2 0 13 0 21.6C0 28.7 2.6 35.2 6.9 40.1L9.6 34.2C12 35.9 14.9 37.3 18.1 38.4Z" fill="#F37022"/>
<path d="M81.1 19C79.8 18.5 78.1 18 76 17.5C74 17.1 72.5 16.6 71.5 16.2C70.5 15.7 70 15.1 70 14.1C70 13.2 70.4 12.4 71.3 11.8C72.1 11.2 73.4 10.9 75.2 10.9C77.7 10.9 80.2 11.6 82.8 13L84.7 8.20005C83.5 7.40005 82 6.80005 80.3 6.40005C78.6 6.00005 76.9 5.80005 75.2 5.80005C72.7 5.80005 70.6 6.20005 68.9 6.90005C67.2 7.70005 65.9 8.70005 65 10C64.1 11.3 63.7 12.7 63.7 14.3C63.7 16.1 64.2 17.6 65.1 18.7C66 19.8 67.2 20.6 68.5 21.1C69.8 21.6 71.5 22.1 73.6 22.6C74.9 22.9 76 23.2 76.8 23.5C77.6 23.8 78.2 24.1 78.7 24.5C79.2 24.9 79.5 25.5 79.5 26.1C79.5 27 79.1 27.7001 78.2 28.2001C77.3 28.7001 76 29 74.2 29C72.6 29 71 28.7001 69.4 28.2001C67.8 27.7001 66.4 27 65.2 26.1L63.1 30.9C64.3 31.8 65.9 32.6001 67.9 33.2001C69.9 33.8001 72 34.1 74.2 34.1C76.7 34.1 78.8 33.7 80.5 33C82.2 32.2 83.5 31.2 84.4 29.9C85.3 28.6 85.7 27.2 85.7 25.6C85.7 23.8 85.2 22.3 84.3 21.3C83.6 20.2 82.5 19.5 81.1 19Z" fill="white"/>
<path d="M90.5 8.80015H96.3V12.3001C97.3 10.0001 99.7 8.40015 102.8 8.40015C106.2 8.40015 108.4 9.90015 109.6 12.6001C111.1 9.60015 114.1 8.40015 117.5 8.40015C122.9 8.40015 126 12.2001 126 18.1001V33.1001H120.1V18.9001C120.1 15.7001 118.6 13.6001 115.8 13.6001C113 13.6001 111 15.9001 111 19.2001V33.2001H105.2V18.9001C105.2 15.7001 103.7 13.6001 100.9 13.6001C98.2 13.6001 96.2 15.9001 96.2 19.2001V33.2001H90.4V8.80015H90.5Z" fill="white"/>
<path d="M141.9 8.30005C146 8.30005 148.8 10.1 149.6 12.3V8.80005H155.4V33.1H149.6V29.6C148.8 31.9 145.9 33.6 141.9 33.6C135.1 33.6 129.8 28.1 129.8 20.9C129.8 13.7 135.1 8.30005 141.9 8.30005ZM142.8 28.3C146.9 28.3 150.2 25.1 150.2 20.9C150.2 16.7 147 13.5 142.8 13.5C138.7 13.5 135.7 16.7 135.7 20.9C135.6 25.2 138.7 28.3 142.8 28.3Z" fill="white"/>
<path d="M161.5 8.80005H167.3V12.4C168.5 9.90005 171.1 8.30005 174.5 8.30005C175.1 8.30005 176 8.40005 176.2 8.40005V14C175.5 13.9 174.7 13.8 173.8 13.8C169.8 13.8 167.3 16.3 167.3 20.3V33H161.5V8.80005Z" fill="white"/>
<path d="M194.8 14.3001V8.9001H192.4H187.1V1.6001H181.3V8.9001H178.9V14.3001H181.3V23.0001C181.3 31.3001 187.3 33.2001 191.3 33.2001H192.5V27.7001H192.2C189.2 27.7001 187.1 26.2001 187.1 22.5001V14.3001H194.8Z" fill="white"/>
<path d="M208.3 8.30005C212.4 8.30005 215.2 10.1 216 12.3V8.80005H221.8V33.1H216V29.6C215.2 31.9 212.3 33.6 208.3 33.6C201.5 33.6 196.2 28.1 196.2 20.9C196.2 13.7 201.5 8.30005 208.3 8.30005ZM209.1 28.3C213.2 28.3 216.5 25.1 216.5 20.9C216.5 16.7 213.3 13.5 209.1 13.5C205 13.5 202 16.7 202 20.9C202 25.2 205.1 28.3 209.1 28.3Z" fill="#F37022"/>
<path d="M235.1 20.3L226.7 8.80005H233.1L238.3 16L243.5 8.80005H249.9L241.5 20.2L250.7 33H244.4L238.3 24.5L232.2 33H225.9L235.1 20.3Z" fill="#F37022"/>
<path d="M116.9 51L113.3 43.9H111.6L116.1 52.3L115.9 52.7001C115.5 53.3001 115.1 53.7 114.6 53.8C114.1 53.9 113.6 53.9001 113.1 53.6001L112.7 54.9C113.3 55.2 113.9 55.3001 114.4 55.2001C115 55.2001 115.5 55.0001 116 54.6001C116.5 54.2001 116.9 53.7 117.3 53L122.3 43.8H120.7L116.9 51Z" fill="white"/>
<path d="M128.3 52.3999L125 46.7H123.4V55.1H124.8V48.8999L127.9 54.1H128.6L131.7 48.8999V55.1H133.1V46.7H131.7L128.3 52.3999Z" fill="white"/>
<path d="M142.6 50.2H137.8V46.7H136.2V55.1H137.8V51.5999H142.6V55.1H144.1V46.7H142.6V50.2Z" fill="white"/>
<path d="M151 49.5H148.7V46.7H147.2V55.1H150.7C151.8 55.1 152.7 54.8999 153.3 54.3999C153.9 53.8999 154.2 53.1999 154.2 52.2999C154.2 51.3999 153.9 50.7999 153.4 50.2999C152.9 49.7999 152.1 49.5 151 49.5ZM152.2 53.4999C151.8 53.7999 151.3 53.8999 150.6 53.8999H148.7V50.5999H150.6C151.3 50.5999 151.8 50.7 152.2 51C152.6 51.3 152.7 51.7 152.7 52.2C152.8 52.8 152.6 53.2999 152.2 53.4999Z" fill="white"/>
<path d="M157.1 46.7H155.6V55.1H157.1V46.7Z" fill="white"/>
<path d="M165.9 47.1001C165.3 46.7001 164.6 46.6001 163.7 46.6001C162.9 46.6001 162.2 46.8001 161.5 47.1001C160.9 47.5001 160.4 48.0001 160 48.6001C159.6 49.2001 159.5 50.0001 159.5 50.8001C159.5 51.6001 159.7 52.4001 160.1 53.0001C160.5 53.6001 161 54.2001 161.7 54.5001C162.4 54.9001 163.2 55.1001 164.1 55.1001C164.8 55.1001 165.4 55.0001 166 54.7001C166.6 54.5001 167 54.1001 167.4 53.7001L166.6 52.7001C166.3 53.0001 165.9 53.3001 165.5 53.5001C165.1 53.7001 164.6 53.8001 164.1 53.8001C163.5 53.8001 163 53.7001 162.5 53.4001C162 53.1001 161.7 52.8001 161.4 52.4001C161.2 52.1001 161.1 51.7001 161.1 51.3001H167.9C167.9 51.2001 167.9 51.1001 167.9 51.1001C167.9 51.0001 167.9 50.9001 167.9 50.9001C167.9 50.0001 167.7 49.3001 167.4 48.6001C167 48.0001 166.5 47.5001 165.9 47.1001ZM162.3 48.2001C162.7 48.0001 163.2 47.8001 163.7 47.8001C164.2 47.8001 164.7 47.9001 165.1 48.2001C165.5 48.4001 165.8 48.8001 166.1 49.2001C166.3 49.5001 166.4 49.9001 166.4 50.3001H161C161 49.9001 161.1 49.6001 161.3 49.2001C161.5 48.8001 161.9 48.5001 162.3 48.2001Z" fill="white"/>
<path d="M181.5 47.1001C180.9 46.7001 180.1 46.6001 179.3 46.6001C178.6 46.6001 177.9 46.8001 177.3 47.1001C176.9 47.3001 176.5 47.6001 176.2 48.0001V46.7001H174.7V58.2001H176.2V53.8001C176.5 54.2001 176.8 54.5001 177.2 54.7001C177.8 55.0001 178.4 55.2001 179.1 55.2001C179.9 55.2001 180.7 55.0001 181.3 54.7001C181.9 54.3001 182.4 53.8001 182.8 53.2001C183.2 52.6001 183.4 51.8001 183.4 50.9001C183.4 50.0001 183.2 49.3001 182.8 48.6001C182.6 48.0001 182.1 47.5001 181.5 47.1001ZM181.7 52.4001C181.5 52.9001 181.1 53.2001 180.7 53.4001C180.3 53.6001 179.8 53.8001 179.2 53.8001C178.7 53.8001 178.2 53.7001 177.8 53.4001C177.4 53.2001 177 52.8001 176.8 52.4001C176.6 51.9001 176.4 51.4001 176.4 50.8001C176.4 50.2001 176.5 49.7001 176.8 49.2001C177 48.8001 177.4 48.4001 177.8 48.2001C178.2 48.0001 178.7 47.8001 179.2 47.8001C179.7 47.8001 180.2 47.9001 180.7 48.2001C181.2 48.5001 181.5 48.8001 181.7 49.2001C181.9 49.6001 182.1 50.2001 182.1 50.8001C182 51.5001 181.9 52.0001 181.7 52.4001Z" fill="white"/>
<path d="M191.6 47.1001C191 46.7001 190.3 46.6001 189.4 46.6001C188.6 46.6001 187.9 46.8001 187.2 47.1001C186.6 47.5001 186.1 48.0001 185.7 48.6001C185.3 49.2001 185.2 50.0001 185.2 50.8001C185.2 51.6001 185.4 52.4001 185.8 53.0001C186.2 53.6001 186.7 54.2001 187.4 54.5001C188.1 54.9001 188.9 55.1001 189.8 55.1001C190.5 55.1001 191.1 55.0001 191.7 54.7001C192.3 54.5001 192.7 54.1001 193.1 53.7001L192.3 52.7001C192 53.0001 191.6 53.3001 191.2 53.5001C190.8 53.7001 190.3 53.8001 189.8 53.8001C189.2 53.8001 188.7 53.7001 188.2 53.4001C187.7 53.1001 187.4 52.8001 187.1 52.4001C186.9 52.1001 186.8 51.7001 186.8 51.3001H193.6C193.6 51.2001 193.6 51.1001 193.6 51.1001C193.6 51.0001 193.6 50.9001 193.6 50.9001C193.6 50.0001 193.4 49.3001 193.1 48.6001C192.7 48.0001 192.2 47.5001 191.6 47.1001ZM188 48.2001C188.4 48.0001 188.9 47.8001 189.4 47.8001C189.9 47.8001 190.4 47.9001 190.8 48.2001C191.2 48.4001 191.5 48.8001 191.8 49.2001C192 49.5001 192.1 49.9001 192.1 50.3001H186.7C186.7 49.9001 186.8 49.6001 187 49.2001C187.2 48.8001 187.6 48.5001 188 48.2001Z" fill="white"/>
<path d="M206.6 53.7999H202.9V46.7H201.4V53.7999H197.6V46.7H196.1V55.1H208.1V46.7H206.6V53.7999Z" fill="white"/>
<path d="M216.9 47.1001C216.3 46.7001 215.6 46.6001 214.7 46.6001C213.9 46.6001 213.2 46.8001 212.5 47.1001C211.9 47.5001 211.4 48.0001 211 48.6001C210.6 49.2001 210.5 50.0001 210.5 50.8001C210.5 51.6001 210.7 52.4001 211.1 53.0001C211.5 53.6001 212 54.2001 212.7 54.5001C213.4 54.9001 214.2 55.1001 215.1 55.1001C215.8 55.1001 216.4 55.0001 217 54.7001C217.6 54.5001 218 54.1001 218.4 53.7001L217.6 52.7001C217.3 53.0001 216.9 53.3001 216.5 53.5001C216.1 53.7001 215.6 53.8001 215.1 53.8001C214.5 53.8001 214 53.7001 213.5 53.4001C213 53.1001 212.7 52.8001 212.4 52.4001C212.2 52.1001 212.1 51.7001 212.1 51.3001H218.9C218.9 51.2001 218.9 51.1001 218.9 51.1001C218.9 51.0001 218.9 50.9001 218.9 50.9001C218.9 50.0001 218.7 49.3001 218.4 48.6001C218 48.0001 217.5 47.5001 216.9 47.1001ZM213.3 48.2001C213.7 48.0001 214.2 47.8001 214.7 47.8001C215.2 47.8001 215.7 47.9001 216.1 48.2001C216.5 48.4001 216.8 48.8001 217.1 49.2001C217.3 49.5001 217.4 49.9001 217.4 50.3001H212C212 49.9001 212.1 49.6001 212.3 49.2001C212.5 48.8001 212.9 48.5001 213.3 48.2001Z" fill="white"/>
<path d="M227.7 50.2H222.9V46.7H221.4V55.1H222.9V51.5999H227.7V55.1H229.3V46.7H227.7V50.2Z" fill="white"/>
<path d="M233.9 52.7999V46.7H232.4V55.1H233.8L239 49V55.1H240.5V46.7H239.1L233.9 52.7999Z" fill="white"/>
<path d="M246.7 46.7C245.6 46.7 244.7 46.8999 244 47.3999C243.3 47.8999 243 48.5999 243 49.5999C243 50.4999 243.3 51.2 243.9 51.7C244.2 51.9 244.5 52.1 244.9 52.2L242.8 55.1H244.4L246.3 52.3999C246.4 52.3999 246.4 52.3999 246.5 52.3999H249V55.1H250.4V46.7H246.7ZM244.5 49.7C244.5 49.1 244.7 48.6999 245.1 48.3999C245.5 48.0999 246 48 246.7 48H249V51.2999H246.7C245.2 51.2999 244.5 50.8 244.5 49.7Z" fill="white"/>
</svg>
