<svg width="57" height="41" viewBox="0 0 57 41" fill="none" xmlns="http://www.w3.org/2000/svg">
<path d="M47.8 1L45.1 7.6C40 4.7 34.8 3.2 29.7 3.2C26.1 3.2 23.4 3.8 21.7 4.9C20 6.1 19.1 7.6 19.1 9.5C19.1 11.4 20.1 12.8 22.1 13.7C24.1 14.6 27.1 15.5 31.2 16.4C35.4 17.4 38.9 18.4 41.6 19.4C44.3 20.4 46.6 22 48.5 24.2C50.4 26.4 51.4 29.3 51.4 33C51.4 35.5 50.8 37.8 49.7 40C54 35 56.6 28.6 56.6 21.5C56.6 13.4 53.2 6.1 47.8 1Z" fill="white"/>
<path d="M18.1 38.4C21.4 39.5 24.7 40 27.9 40C31.5 40 34.2 39.5 36 38.4C37.7 37.3 38.6 35.9 38.6 34.1C38.6 32.8 38.1 31.7 37.1 30.8C36.1 29.9 34.7 29.2 33.1 28.7C31.5 28.2 29.3 27.6 26.6 27C22.4 26 18.9 25 16.2 24C13.5 23 11.2 21.4 9.3 19.2C7.4 17 6.4 14 6.4 10.3C6.4 7.1 7.3 4.2 9 1.5C9.3 1 9.7 0.5 10.1 0C3.9 5.2 0 13 0 21.6C0 28.7 2.6 35.2 6.9 40.1L9.6 34.2C12 35.9 14.9 37.3 18.1 38.4Z" fill="#F37022"/>
</svg>
